<svg version="1.0" xmlns="http://www.w3.org/2000/svg" width="300.000000pt" height="301.000000pt" viewBox="-3 -3 306 307" preserveAspectRatio="xMidYMid meet"><g id="deeditor_bgCarrier" stroke-width="0">
  <rect id="dee_c_e" x="-3" y="-3" width="306" height="307" rx="38.4" fill="#1a1a1a" strokewidth="0"/>
</g>
<g transform="translate(0.000000,301.000000) scale(0.100000,-0.100000)" fill="#dbd7d0" stroke="none">
<path d="M2087 2315 c-46 -15 -122 -78 -144 -119 -10 -19 -14 -18 -79 16 -116 60 -193 80 -340 85 -206 8 -346 -28 -502 -129 -230 -151 -363 -406 -364 -698 -1 -188 45 -340 147 -490 l50 -74 -88 -168 c-85 -161 -96 -198 -63 -198 9 0 113 32 232 71 l217 71 71 -21 c150 -43 259 -50 402 -26 373 65 640 356 684 746 18 160 -23 345 -83 378 -28 15 -82 61 -224 193 l-53 49 28 35 c15 18 29 34 32 34 3 0 52 -43 108 -95 111 -102 133 -111 191 -80 118 60 135 251 33 358 -62 65 -165 90 -255 62z m131 -145 c18 -11 37 -32 42 -46 12 -31 13 -71 2 -78 -4 -2 -41 25 -81 62 -63 56 -71 67 -55 73 32 13 58 10 92 -11z m-579 -26 c60 -14 181 -61 181 -71 0 -3 -10 -13 -22 -22 -14 -12 -21 -29 -21 -50 0 -36 33 -73 172 -196 84 -74 83 -73 42 -124 l-19 -25 -103 96 c-57 52 -114 101 -127 107 -45 24 -39 29 -472 -394 -201 -196 -206 -203 -265 -312 -70 -129 -70 -129 -129 -9 -50 102 -76 210 -76 320 0 126 21 215 77 326 38 76 64 111 128 176 171 171 388 232 634 178z m162 -521 c41 -36 75 -70 77 -74 2 -5 -23 -46 -56 -91 -33 -46 -125 -177 -206 -292 l-146 -210 -248 -88 c-136 -48 -250 -87 -254 -85 -5 1 46 95 113 209 l120 207 256 246 c141 135 259 245 263 245 3 0 40 -30 81 -67z m359 -59 c8 -39 10 -102 7 -153 -16 -262 -179 -492 -423 -594 -58 -25 -212 -62 -221 -53 -2 2 81 125 184 272 324 463 426 603 434 599 3 -3 12 -35 19 -71z" fill="#dbd7d0"/>
<path d="M1200 1988 c-104 -54 -220 -184 -220 -246 0 -11 10 -31 21 -46 16 -21 28 -26 53 -24 25 2 37 13 63 52 48 73 98 120 161 151 74 36 92 52 92 85 0 66 -73 78 -170 28z" fill="#dbd7d0"/>
<path d="M677 2252 c-39 -43 -7 -122 48 -122 30 0 75 41 75 68 0 11 -9 31 -21 46 -25 32 -77 36 -102 8z" fill="#dbd7d0"/>
</g>
</svg>